<?xml version="1.0" ?><svg enable-background="new 0 0 128 128" version="1.1" viewBox="0 0 128 128" xml:space="preserve" xmlns="http://www.w3.org/2000/svg" xmlns:xlink="http://www.w3.org/1999/xlink"><g id="Слой_2"/><g id="_x2B__more_4"><g id="time"><circle cx="64" cy="64" fill="#B2DFDB" r="39" stroke="#78909C" stroke-miterlimit="10" stroke-width="2"/><circle cx="64" cy="64" fill="#FFFFFF" r="33" stroke="#546E7A" stroke-linejoin="round" stroke-miterlimit="10" stroke-width="2"/><line fill="none" stroke="#546E7A" stroke-linejoin="round" stroke-miterlimit="10" stroke-width="4" x1="64" x2="64" y1="37" y2="69"/><line fill="none" stroke="#455A64" stroke-linejoin="round" stroke-miterlimit="10" stroke-width="4" x1="50" x2="68.2" y1="72.8" y2="61.3"/><g><path d="M106.9,34.8l-17-5.8     l0,0c1.4-0.2,2.5-1.1,2.9-2.4l2.5-7.3c1.3-3.7,5.2-5.6,8.9-4.3l0,0c3.7,1.3,5.6,5.2,4.3,8.9l-2.5,7.3     C105.6,32.4,105.9,33.8,106.9,34.8L106.9,34.8z" fill="#FFCA28" stroke="#F57C00" stroke-linejoin="round" stroke-miterlimit="10" stroke-width="2"/><path d="M102.3,14.2     c0.4-1.3,1.3-2.2,2.7-1.7c1.4,0.5,1.5,1.7,1.1,3" fill="none" stroke="#F57C00" stroke-linejoin="round" stroke-miterlimit="10" stroke-width="2"/><ellipse cx="93.9" cy="32.5" fill="#FFA726" rx="2" ry="2" stroke="#F57C00" stroke-linejoin="round" stroke-miterlimit="10" stroke-width="2" transform="matrix(0.3248 -0.9458 0.9458 0.3248 32.687 110.7481)"/></g><g><circle cx="78" cy="21" fill="#FFE082" r="2" stroke="#FFB74D" stroke-linejoin="round" stroke-miterlimit="10" stroke-width="2"/><path d="M80,21v-8.6     c1,0.3,2,0.7,3,1" fill="none" stroke="#FFB74D" stroke-linejoin="round" stroke-miterlimit="10" stroke-width="2"/></g><g><ellipse cx="114.3" cy="50.7" fill="#FFE082" rx="2" ry="2" stroke="#FFB74D" stroke-linejoin="round" stroke-miterlimit="10" stroke-width="2" transform="matrix(0.9416 -0.3367 0.3367 0.9416 -10.3889 41.4363)"/><path d="M116.2,50l-2.9-8.1     c1.1,0,2.1-0.1,3.2,0" fill="none" stroke="#FFB74D" stroke-linejoin="round" stroke-miterlimit="10" stroke-width="2"/></g><g><polyline fill="none" points="46.6,106      33.5,112.4 41.3,100    " stroke="#5C6BC0" stroke-linejoin="bevel" stroke-miterlimit="10" stroke-width="2"/><line fill="none" stroke="#5C6BC0" stroke-linejoin="bevel" stroke-miterlimit="10" stroke-width="2" x1="48.6" x2="38.2" y1="108.2" y2="117.6"/></g><g><polyline fill="none" points="18,84 14,98      10,84    " stroke="#5C6BC0" stroke-linejoin="bevel" stroke-miterlimit="10" stroke-width="2"/><line fill="none" stroke="#5C6BC0" stroke-linejoin="bevel" stroke-miterlimit="10" stroke-width="2" x1="21" x2="21" y1="84" y2="98"/><line fill="none" stroke="#5C6BC0" stroke-linejoin="bevel" stroke-miterlimit="10" stroke-width="2" x1="25" x2="25" y1="84" y2="98"/><line fill="none" stroke="#5C6BC0" stroke-linejoin="bevel" stroke-miterlimit="10" stroke-width="2" x1="29" x2="29" y1="84" y2="98"/></g><g><line fill="none" stroke="#5C6BC0" stroke-linejoin="bevel" stroke-miterlimit="10" stroke-width="2" x1="33.1" x2="18.9" y1="28.8" y2="23.2"/><line fill="none" stroke="#5C6BC0" stroke-linejoin="bevel" stroke-miterlimit="10" stroke-width="2" x1="23.2" x2="28.8" y1="18.9" y2="33.1"/><line fill="none" stroke="#5C6BC0" stroke-linejoin="bevel" stroke-miterlimit="10" stroke-width="2" x1="25.3" x2="35.2" y1="16.8" y2="26.7"/></g></g></g><g id="icons"/></svg>