<?xml version="1.0" encoding="utf-8"?>
<!-- Generator: Adobe Illustrator 21.0.0, SVG Export Plug-In . SVG Version: 6.00 Build 0)  -->
<svg version="1.1" id="Camada_1" xmlns="http://www.w3.org/2000/svg" xmlns:xlink="http://www.w3.org/1999/xlink" x="0px" y="0px"
	 viewBox="0 0 145 204" style="enable-background:new 0 0 145 204;" xml:space="preserve">
<style type="text/css">
	.st0{fill:#7B7A8A;}
	.st1{fill:#8A8890;}
	.st2{fill:#050E2E;}
	.st3{fill:#AEABB4;}
	.st4{fill:#AFAFA8;}
	.st5{fill:#619DC7;}
	.st6{fill:#E1E2DC;}
	.st7{fill:#99A09F;}
	.st8{fill:#E1E1DC;}
	.st9{fill:#AFAEA8;}
	.st10{fill:#AEAEA8;}
	.st11{fill:#FDFDFD;}
	.st12{fill:#FAFAFA;}
	.st13{fill:#F5F4F5;}
	.st14{fill:#EFEEEF;}
	.st15{fill:#F2F1F2;}
	.st16{fill:#EBEAEB;}
	.st17{fill:#D3D1D5;}
	.st18{fill:#26345A;}
	.st19{fill:#C6D9C6;}
	.st20{fill:#060F2F;}
	.st21{fill:#C5D9C6;}
	.st22{fill:#2F3C5F;}
	.st23{fill:#1F2345;}
	.st24{fill:#619CC6;}
	.st25{fill:#609BC5;}
</style>
<g>
	<path class="st0" d="M168,181.8c0.1,0.1,0.3,0.3,0.4,0.4c-0.2,0.2-0.5,0.4-0.7,0.1C167.6,182.1,167.8,181.9,168,181.8z"/>
	<path class="st1" d="M175.9,129.7c0.7,0.2,1,0.6,1.1,1.2C176.1,130.4,176.1,130.4,175.9,129.7z"/>
	<path class="st2" d="M10.1,96.7c-0.9,0-1.8,0.5-2.8,0.4c0-1.2,0.5-2.3,0.8-3.3c1.4-4.1,3.7-7.6,6.7-10.6c1.6-1.6,3.1-3.1,4.7-4.7
		c1-1,1.9-2.1,2.5-3.4c0.6-1.3,0.5-1.5-0.8-2c-0.9-0.3-1.8-0.5-2.7-0.8c-1.8-0.5-1.9-0.6-1.1-2.2c0.8-1.5,1.7-3,2.6-4.4
		c0.5-0.7,0.5-1.2-0.2-1.9c-1.8-1.7-3.3-3.7-4.4-5.9c-1-1.9-1.8-3.9-1.9-6.1c1.4-0.3,2.8,0.2,4.1-0.1c0.1-0.7-0.3-1.3-0.5-1.9
		c-1.1-3.3-2.1-6.6-2.5-10.1c-0.5-4.1-0.1-8.1,0.8-12.1c1.3-6.1,2.9-12.2,5.3-18c1.6-3.8,1-3.6,4.8-1.9c7.1,3.2,13.6,7.3,19.4,12.5
		c4.5,4,8.9,8.1,13.6,11.9c9.2,7.6,19.6,9.8,31.1,5.8c4.2-1.5,7.6-4.1,10.3-7.5c5.4-6.8,9.4-14.3,11-22.9c0.2-1,0.5-2,0.8-3
		c0.1-0.3,0.3-0.6,0.5-0.9c0.7,0,0.9,0.5,1.2,0.9c1.9,2,3.7,4.1,5.5,6.2c6.7,7.6,10.6,16.5,12.5,26.3c1,5.4,1.7,10.9,2,16.5
		c0.1,1.5,0,3-0.1,4.6c0,1-0.3,2-0.9,2.7c-0.8,1-0.8,2-0.7,3.1c0.3,2.5,0.6,5.1,0.8,7.6c0.1,1.6,1,2.9,2,4c1.5,1.8,2.8,3.8,3.1,6.1
		c0.2,1.5,0.2,3,0.1,4.6c-0.1,1.1,0.1,2.1,0.6,3c2.3,3.8,2.8,7.9,2.4,12.1c0,0.5,0,1.1-0.1,1.6c-0.1,1.8-0.1,1.8-2,1.4
		c-1-0.2-1.9-0.6-2.9-0.8c-0.9-0.3-1.8-0.3-2.8-0.2c0.2,2.1,1,4,2,5.8c1.1,2,2.3,4,3.4,6.1c2.7,5,3.4,10.2,2.3,15.7
		c-0.5,2.3-1.7,4.3-3.1,6.1c-0.8,0.9-1.8,1.5-2.9,1.9c-1.8,0.6-2.7,1.8-3.2,3.5c-0.1,0.5-0.3,0.9-0.5,1.4c-0.7,2-2.1,3.2-4.1,4
		c-4.8,1.7-7.2,5-7.4,10.1c-0.1,1.9,0.1,3.8-0.3,5.6c-1.1,5.2-4.1,9.2-8.9,11.8c-1.6,0.9-3.2,1.6-4.8,2.5c-0.8,0.4-1.2,0.9-1.1,1.9
		c0.3,2.9-1.1,4.9-3.6,6.2c-1,0.5-2,1-3,1.5c-2.6,1.3-4.3,3.4-5.4,6c-1,2.4-1.5,5-1.9,7.6c-0.5,0.3-1,0-1.4-0.1
		c-6.3-1.6-12.2-4.2-17.6-7.7c-1.6-1-3.1-2.3-4.5-3.6c-0.9-0.8-1.7-1.7-3.2-1.3c-0.5,0.1-1.2-0.3-1.8-0.5c-4.8-1.8-9.5-3.6-14.3-5.3
		c-2.2-0.8-4.3-1.8-6.1-3.5c-0.4-0.3-0.7-0.7-1.4-0.8c-0.1,0.9-0.1,1.8-0.2,2.9c-1.7-1.1-2.7-2.7-3.8-4.1c-1.2-1.5-2.3-3.1-3.4-4.6
		c-1.1-1.5-1.8-3.2-3.2-4.7c-0.6,0.6-0.6,1.5-1.5,1.7c-3.7-4.1-7.6-8-9.6-13.6c-0.4,0.5-0.6,0.8-0.9,1c-0.4,0.3-0.7,0.4-1.1-0.1
		c-4.1-4.9-7.7-10-9.4-16.2c-1-3.5-1.7-7-0.9-10.6c0.5-2.3,1.5-4.2,3.2-5.9c2.4-2.3,2.2-2,0-4.2c-1.9-1.8-4.1-3.4-6.5-4.8
		c0.9-0.8,2-1,2.9-1.2c1.7-0.3,3.4-0.5,5.1-1.1c1.3-0.4,2.5-1,3.6-1.9c0.9-0.8,1.4-1.7,1.4-2.9c0-1.3-0.4-1.8-1.8-1.7
		c-1.1,0.1-2.1,0.4-3,0.8c-1.2,0.5-2.3,1.1-3.5,1.6c-0.3,0.1-0.6,0.4-1.2,0.2c0.7-4.3,2.5-8.3,4.5-12.2
		C11.1,96.4,10.6,96.6,10.1,96.7z"/>
	<path class="st3" d="M10.1,96.7c0.2-0.1,0.4-0.2,0.6-0.3c0.2-0.1,0.6-0.1,0.7,0.1c0.1,0.3,0,0.6-0.4,0.7
		C10.8,96.8,10.4,96.8,10.1,96.7z"/>
	<path class="st4" d="M129.5,78.9c2.5,1.6,2.6,4.1,2.9,6.6c0.1,0.4-0.1,0.7-0.6,0.7c-0.6,0-1.2,0.1-1.9,0.5c0.6,0.9,1.1,1.8,1.7,2.8
		c0.7,1.3,1.5,2.5,2.2,3.8c0.9,1.8,0.5,3.2-1.1,4.4c-1,0.7-2.1,1.1-3.2,1.4c-0.8,0.2-1-0.1-0.9-0.8c0.3-2.1,0-4.1-0.6-6.1
		c-0.5-1.9-1.4-3.6-3.2-4.9c0,1.3,0,2.4,0,3.4c0,1.6,0,3.3-0.4,4.9c-0.5,1.7-1.4,2.3-3.2,2c-0.8-0.1-1.6-0.3-2.4-0.2
		c-1.2-0.8-2.8-1-3.3-2.6c0-1.3,0.4-2.4,1.6-3.1c1.2-0.7,1.4-1.8,1.5-3c0.2-1.6,0.4-3.1,1.1-4.6c0.2-0.5,0.2-1-0.1-1.4
		c-1.1-1.3-1-2.8-0.1-4.5c-1.8,0.8-2.5,2-3.1,3.2c-0.5,1.1-1,2.2-1.6,3.3c-1.1,1.7-3,2-4.6,0.7c-1.4-1.1-2.1-2.7-2.3-5.2
		c0-0.2-0.4,0.1-0.1,0c0.1,0,0.1,0,0.1,0.1c-0.5,3,0.9,5.4,2.4,7.8c0.3,0.5,0.8,1,0.7,1.6c-0.4,0.9-0.3,1.8,0,2.7
		c1.1,3.8,2.9,7.3,5.8,10.2c3.5,3.6,4.1,7.2,2,11.6c-0.4,0.6-1.1,0.8-1.6,1.1c-2.5,1.6-3,4-1.5,6.5c0.8,1.4,2,2.3,3.3,3.2
		c0,0.1,0,0.3,0,0.3c-2.1,0.8-4,1.9-6.2,2.3c-1.7,0.3-3-0.9-4.3-1.8c-3.2-2.2-6.6-4.1-10.4-5.1c-3.7-0.9-6.1-3-6.7-6.9
		c-0.1-0.4-0.3-0.8-0.4-1.2c-0.6-3.8-1.9-7.3-5.6-9.4c-2.9-1.7-6-2.5-9.3-2.8c-7.5-0.6-12.6-4.3-15.2-11.2c-0.2-0.5-0.3-1-0.6-1.5
		c-0.4,2.1-0.8,4.1-0.3,6.2c0.3,4,1.7,7.6,4.8,10.3c0.4,0.4,1.1,0.8,0.7,1.3c-1,1.2-0.2,2.1,0.3,3.1c0,0.2,0,0.3-0.1,0.5
		c-0.5,0.6-0.3,1.2,0.2,1.7c0.6,0.6,1.4,1.1,1.3,2c-0.2,0.8-0.9,1.3-1.5,1.7c-2.7,2.2-3.4,4.6-2.3,7.9c-0.2-0.5-0.2-1.1,0.1-1.5
		c0.3-0.3,0.6-0.4,0.9-0.6c2.5-1.2,3-0.9,3.5,1.7c0.4,2.3,1.5,3.5,3.6,3.5c0.3-0.5,0.5-1.1,0.8-1.6c1.9-3.2,5.9-3.6,8.5-0.8
		c1.2,1.3,2.1,2.8,3,4.4c0.5,0.8,0.9,0.9,1.6,0.3c0.2-0.2,0.4-0.3,0.6-0.4c1.3-0.7,1.5-0.6,2.1,0.7c0.7,1.6,1.3,3.1,1.9,4.7
		c0.3,0.8,0.7,0.9,1.4,0.5c0.1,0,0.1-0.1,0.2-0.1c2.8-1,3.4-0.7,3.8,2.2c0.2,1.6,0.5,3.1,1.3,4.5c0.4,0.1,0.6-0.1,0.9-0.3
		c1.5-1,1.8-0.8,2,1c0.1,1.5,0,3-0.4,4.5c-0.8,0.5-1.4,0.1-2.1-0.2c-2.8-1.3-5.5-2.9-7.6-5.2c-2.6-2.8-5.7-4.2-9.4-4.6
		c-1.5-0.1-3-0.3-4.4-0.4c-2.2-0.1-4.1,0.7-5.9,1.8c-2.3,1.5-3.6,1.1-4.7-1.4c-0.5-1.1-1.2-1.2-2.2-0.8c-1.9,0.6-2.5,2.2-3.2,3.8
		c-0.6,1.2-1.1,2.4-1.7,3.6c-0.9-0.4-1.2-1.2-1.5-1.9c-0.3-0.6-0.6-1.2-0.9-1.8c-0.5-1-1.3-1.4-2.4-1.4c-1.3,0-2.6,0.3-3.8,0.8
		c0.2,0.6,0.7,0.7,1.1,0.9c1.9,0.7,2.7,2.1,2.8,3.9c0.1,0.8,0.2,1.6,0.3,2.3c0.1,0.7,0.4,1.4,0.8,2c1.7,2.4,4.9,2.2,6.2-0.4
		c0.5-1.1,0.3-2.3,0.8-3.4c0.6,0,0.8,0.5,1.2,0.8c2.1,1.4,4.5,2.1,7,2c2.1-0.1,4.2-0.1,6.3,0.3c0.6,0.1,1.2,0.3,1.8,0.5
		c1.3,0.5,2,1.5,2,3c0,0.9-0.2,1.8-0.4,2.7c-0.2,0.7-0.4,1.4-0.6,2.1c2.7,0.5,4.1-1,5.1-3.3c1.5,2.6,1.8,5.1,1.9,7.7
		c0.1,2.5-0.1,5.1-0.4,7.7c1.6-0.1,2.5-1,3.1-2.1c0.6-1,1.2-2,2-2.8c1.9-1.9,4.9-2.4,7.3-0.5c-0.9,1.1-2.4,1.4-3.5,2.2
		c-1.2,0.8-2.1,1.8-2.7,3.4c1.3-0.4,2.2-1,3.3-1.3c2.8-0.7,4.7,0.4,5.3,3.4c-6.2-1.7-9.4,2.2-12.4,6.6c-0.5-0.3-0.5-0.8-0.8-1.2
		c-0.2-0.4-0.6-0.7-1.1-0.6c-0.6,0.1-0.5,0.6-0.7,1c-0.6,2.4,0,4.6,1.7,6.4c0.4,0.4,0.7,0.9,1.2,1.1c0.6-0.6,0.6-1.5,0.8-2.2
		c1-4,3.4-6.8,7-8.8c0.8-0.4,1.2-0.4,1.6,0.5c0.5,1.2,1,2.3,1.6,3.6c3.8-2.6,5.1-6.6,6.4-10.6c1.6,3.6,2.1,7.2-0.1,10.7
		c-1,1.6-2.2,2.9-3.6,4.1c-4.2,3.5-7.9,7.6-12.3,10.8c-1.9,1.4-2.6,3.3-2.5,5.6c-0.4,0.3-0.8,0.2-1-0.1c-1.8-2.1-3.9-4.1-4.6-6.9
		c-0.1-4.2-1.4-7.8-4.7-10.8c-2.5-2.2-4.3-5.1-4.8-8.6c-0.4-2.4,0.4-4.5,0.9-6.8c0.4-1.1-0.2-1.7-1.2-2.1c-0.9-0.4-1.8-0.4-2.7-0.2
		c-0.6,0.1-1.3,0.3-1.7-0.4c-0.3-0.6,0-1.2,0.3-1.7c0.8-1.5,2.4-2,3.6-3.1c0-0.2-0.1-0.4-0.3-0.6c-2.5-2.6-5.6-3.1-9.1-2.5
		c-1.8,0.3-3.5,1.1-5.2,1.8c-1.8,0.7-2.6,0.5-3.5-1.2c-1.2-1.9-2.2-4-2.9-6.1c-0.3-0.8-0.5-1.6-1.2-2.2c-0.3-0.8-0.9-1.2-1.7-1.5
		c-1.3-0.5-2.6-1.1-3.7-2c-2.8-2.3-3.8-5.1-3-8.6c0.4-2,0.4-2-1.7-2c-1.8,0-3.4,0.6-4.6,1.9c-0.9,0.9-1.8,1.9-2.8,2.6
		c-1.5,1-2.3,0.8-2.9-1c-0.3-1-0.3-2,0-3.1c0.2-0.6,0.4-1.2,0.7-1.7c1.2-2.2,1.3-4.1-0.9-5.8c-0.2-0.6,0.1-1.2,0.4-1.7
		c1.5-2.7,2.5-5.5,3.4-8.4c1.3-3.9,3.5-7.3,6.3-10.3c0.4-0.5,0.9-0.8,1.5-1c1.7-0.5,3,0.4,4.5,1.3c0-1.3-0.6-1.9-1.4-2.5
		c-0.8-0.7-0.9-1.5-0.5-2.4c1.1-2.3,2.3-4.6,3.5-6.8c0.8-1.5,2.4-1.8,3.9-2.5c-1-0.7-2.1-0.9-3.1-1.2c-1.4-0.4-1.6-0.9-0.6-2
		c1.4-1.7,3.3-2.5,5.4-3.1c0.6-0.2,1.3-0.1,1-1.2c-0.2-0.9,0.9-0.9,1.6-1.1c2.3-0.5,4.5-1.3,6.5-2.7c0.6-0.5,1.4-0.8,0.3-1.7
		c-0.9-0.8-0.3-2,1.2-2.9c2-1.3,4.3-1.8,6.7-2.2c1.6-0.3,3.3-0.2,4.9-0.7c-0.9-1.5-2.4-2-3.9-2.6c-1.7-0.7-3.6-1-5.4-1.1
		c-3.2-0.1-6,0.8-7.6,3.8c-1.1,2-2.8,3.4-4.9,4.2c-2.4,0.9-4.8,1.7-7.1,2.7c-1.9-0.3-3.7-0.8-5.6-1.4c-2.1-0.7-2.3-1.3-1.2-3.2
		c2.1-3.7,3.5-7.6,3.2-12c-0.1-1.1-0.4-2.1-0.3-3.2c1.4-5.6,1-11.2-0.1-16.7c2.4-2.1,1.9-4.4,0.8-6.9c-0.7-1.6-1.7-3.1-2.4-4.7
		c-0.2-0.5-0.5-1,0-1.5c0.4-0.4,0.9-0.2,1.4,0c1.7,0.5,3.2,1.4,4.3,2.8c1.1,1.4,2.3,2.6,3.6,3.7c1.1,0.9,2.2,1.8,3.8,1.6
		c0.2,0.2,0.5,0.4,0.7,0.5c0.4,1.2-0.7,2-0.7,3.1c0,1.6,0.1,3.3,0.4,4.9c0.8,3.8-0.3,7.2-2.2,10.4c-1.6,2.6-2.9,5.3-3.5,8.4
		c-0.1,0.4-0.3,0.9,0.1,1.2c0.4,0.3,0.8,0,1.2-0.2c1.7-0.9,3.1-2,4-3.7c0.4-0.7,0.8-1.5,1.4-2.2c4.2-4,6.9-8.8,7.9-14.6
		c0.8,0.3,1.1,1,1.5,1.4c0.9,1,1.9,1.9,3.4,2c1.5,3.1,4.6,3.7,7.5,4.5c0.6,0.2,1.2,0.1,1.8-0.1c2-0.8,3.8-0.4,5.4,0.9
		c1,0.8,1.8,0.9,2.7-0.1c0.6-0.7,1.3-0.8,2.2-0.7c2.3,0.3,4.3,1.2,5.9,2.8c1.1,1,2.3,1.9,4,1.3c0.8-0.3,1.5,0.1,2,0.7
		c1.1,1.4,2.6,1.6,4,1c3-1.2,5.1-0.1,7.4,1.8c3.4,2.9,6.1,6.4,9.1,9.6C121.6,72,125.1,75.9,129.5,78.9z"/>
	<path class="st5" d="M39.7,101.9c-3.2,3-5.7,6.5-7.1,10.6c-1.2,3.6-2.5,7.2-4.4,10.6c0,1-0.7,1.7-1.2,2.4c-0.3,0.3-0.7,0.6-1,0.9
		c-3.4,4-3.8,8.3-1.3,12.9c1,1.8,2.3,3.5,3.8,4.9c0.8,0.7,1.4,0.7,1.9-0.3c0.4-0.8,0.8-1.6,1.5-2.3c1.4-1.4,2.5-1.2,3.2,0.6
		c0.8,2,1.4,4.2,2.2,6.2c0.8,2,1.9,3.8,2.9,6c0.5-1.4,0.6-2.6,1.3-3.7c0.4-0.7,1-1.3,1.9-1.3c0.8,0,1,0.8,1.2,1.4
		c0.2,0.9,0.8,0.8,1.4,0.4c0.4-0.3,0.8-0.6,1.1-1c1.3-1.3,2.2-1.2,3.3,0.3c1.2,1.8,1.9,3.8,2.6,5.8c0.4,1.1,0.9,1.4,1.9,0.5
		c4.7-4,10-4.4,15.7-2.9c0.4,0.2,0.8,0.5,1.2,0.6c-0.1,1-1,1.1-1.7,1.5c-1.4,0.7-2.5,1.7-2.7,3.3c0.5,0.4,0.8,0.1,1.3,0.1
		c1.2-0.2,2.4-0.2,3.6,0.5c1.4,0.8,1.4,0.8,0.9,2.4c-0.2,0.1-0.3,0.2-0.4,0.3c-4.8,5-4.4,8.9,1.2,15.1c2.1,2.4,4.6,4.4,6.2,7.3
		c0.6,1.1,1.3,2.2,1.7,3.4c0.5,2.2,2,3.7,3.4,5.3c0.5,0.6,0.8,1.6,1.8,1.7c0.1,0.4,0,0.8-0.5,0.7c-0.5-0.1-1.1-0.3-1.6-0.5
		c-5.7-2-10.5-5.3-15-9.2c-4.2-3.6-7.8-7.6-10.8-12.2c-0.2,0-0.4-0.5-0.5,0c-0.1,0.5-0.2,1,0.1,1.5c-0.1,1.6,0.5,3.2,0.3,4.9
		c-1.5-0.1-2.9-0.5-4.2-0.9c-2.9-0.9-5.7-2.2-8.3-3.7c-2.2-1.3-3.8-3.1-4.9-5.4c-0.6-1.3-1.2-2.7-2-3.9c-0.6-1.1-1.3-2.1-2.3-2.8
		c-0.3,0.7,0.2,1.1,0.1,1.8c-0.9,0.2-1.5-0.3-2.1-0.8c-2.2-1.6-3.6-3.8-4.9-6.1c-0.4-0.7-0.7-1.4-1-2c-0.5,0-0.7,0.2-0.9,0.4
		c-1.4,1.1-1.4,1.1-2.6-0.3c-3.4-4.3-5.1-9.1-5.3-14.5c0-1.1,0-2.2,0-3.8c-1,0.9-1.1,1.7-1.5,2.5c-0.5,1.2-1,2.5-1.7,3.6
		c-0.4,0.7-0.9,0.7-1.5,0.3c-1.5-1.1-2.7-2.5-3.5-4.2c-3-6.1-1.8-14,4.8-18.5c0.7-0.5,1.5-0.8,2.2-1.7c-2,0-3.8,0-5.7,0
		c0.1-0.9,0.6-1.4,1-1.9c1.2-1.5,2.5-2.9,3.7-4.3c1.9-2.2,2.9-4.8,3-7.7c0.1-3.6-1.7-5.2-4.1-5.7c-0.8-0.2-1.6-0.5-2.4-0.8
		c0.2-0.7,0.8-0.9,1.1-1.3c2-1.8,3.9-3.8,5-6.3c1.2-2.6,1.2-3.2-2.2-3.3c-1,0-1.9,0.5-3,0.3c0.4-0.9,1.1-1.3,1.8-1.9
		c2.6-2.2,5.2-4.6,7.3-7.3c1.4-1.8,2.6-3.7,3.2-5.9c0.8-2.9,0.1-4.3-2.5-5.7c-0.5-0.3-1.2-0.4-1.6-1.1c0.8-0.9,1.6-1.8,2.4-2.7
		c0.5-0.7,1-1.4,1.4-2.1c0.5-1,0.4-1.2-0.7-1.6c-0.5-0.2-1.1-0.3-1.6-0.4c-1.6-0.5-2.7-2.8-2.1-4.3c0.3-0.6,1-0.7,1.5-0.9
		c1.4-0.7,1.5-1,0.6-2.3c-4.7-6.4-6-13.7-5.1-21.3c0.6-5,2-9.9,3.5-14.7c0.3-1,0.7-2,1.2-2.9c0.2-0.4,0.6-0.7,1-0.2
		c0.2,0.9,0.2,1.8,0.4,2.7c-0.1,1.6,0.6,3,1.5,4.3c0.1,0.6,0.5,1.1,0.8,1.6c1.1,1.9,1.4,3.9,1,6.1c-0.6,3-1.3,5.9-1.3,9
		c0.1,5.1,1.6,9.7,4.7,13.8c0.3,0.4,0.6,0.8,0.9,1.2c2.3,2.5,2.7,5.2,1.3,8.3c-0.2,0.4-0.4,0.8-0.2,1.3c1.5-0.2,2.5-1.1,3.3-2.3
		c0.5-0.8,0.9-1.7,1.3-2.6c0.3-0.6,0.4-1.3,1.3-1.4c0,1.2,0.4,2.4,0.4,3.6c0.2,4.3-1.2,8.1-3.2,11.8c-0.2,0.3-0.4,0.6-0.6,0.9
		c-0.4,0.6-0.2,1,0.5,1.3c0.8,0.2,1.5,0.5,2.3,0.7c1.5,0.3,2.9,0.7,4.3,1.2c0.4,0.2,0.7,0.6,0.8,1c0.1,0.9,0.4,1.8,0.9,2.5
		c0.7,1,0.4,1.9-0.5,2.5c-2.9,1.9-3.9,5.3-6.4,7.5c-0.6,0.5-0.2,0.9,0.4,1.1c0.2,0.1,0.4,0.1,0.6,0.1c2.6,0.2,2.9,0.6,1.6,2.9
		c-0.9,1.6-2.1,2.9-3.6,3.9c-1,0.7-2.1,1.3-3.2,2.2c1.1,0.4,2.1,0.5,3,0.8C38.8,101.1,39.6,101,39.7,101.9z"/>
	<path class="st5" d="M67,113c-0.5-0.9-1.3-1.4-2-2.1c-0.9-0.9-0.9-0.9,0.4-1.6c3.3,0.7,6,0,8.1-2.9c1.8-2.5,5-3,8-1.8
		c4.1,1.7,7.1,4.6,9.5,8.2c0.6,0.6,0.7,1.3,0.8,2c0.5,2.8,2.3,4.5,5,5.4c0.5,0.2,0.9,0.3,1.4,0.4c3.5,1,6.7,2.5,9.6,4.7
		c0.5,0.4,1.1,0.7,1.7,1.1c1.7,1.3,3.5,1.6,5.3,0.2c1.2-0.9,2.7-0.7,3.9-1.4c1.7,0.3,2.7,1.1,3.1,2.8c0.3,1.4,1,2.7,2.1,3.7
		c0.2,0.5,0,0.6-0.4,0.8c-2.9,1.5-5.9,2.8-9.2,3.4c-4.9,0.8-9.2-0.1-13.3-2.8c-1.9-1.2-3.5-2.7-5.1-4.3c-1.9-1.8-3.7-3.7-5.8-5.4
		c-3.3-2.7-7.1-4.5-11.5-4.6c-2.6-0.1-5.1,0.3-7.4,1.5c-2.3,1.2-2.3,4.1,0,5.5c0,0.4,0.1,0.9-0.7,0.6c-2.2-0.7-3.3-2.2-3.4-4.4
		c-0.1-2-0.2-2.1-2.1-1.3c-0.5,0.2-1,0.4-1.5,0.7c-0.8-1-0.1-2,0.3-2.8c0.9-1.9,2.5-3,4.3-3.9c5.4-2.5,10.9-2.6,16.4-0.2
		c2,0.9,3.7,2.1,5.8,3.2c-3-4.8-10.2-7.8-15.6-6.6c-1.8,0.4-3.4,1-5.1,1.6C68.8,113,68,113.5,67,113z"/>
	<path class="st6" d="M129.5,78.9c-0.2,0.3-0.5,0.3-0.8,0.1c-2.8-2.4-5.8-4.5-8.1-7.5c-1.1-1.4-2.4-2.6-3.6-3.9
		c-1.7-1.9-3.4-3.8-5.1-5.8c-1.6-1.7-3.4-3.1-5.3-4.6c-1-0.8-2.1-1-3.4-0.5c-1.1,0.4-2.4,0.7-3.6,0.6c-0.8,0-1.4-0.2-1.9-0.9
		c-1-1.4-1.1-1.4-2.8-0.9c-0.8,0.3-1.4,0.1-2.1-0.4c-1.1-0.8-2.2-1.6-3.2-2.5c-1.4-1.1-3.1-1.1-4.7-1.6c-0.4-0.1-0.7,0.1-1,0.4
		c-0.2,0.2-0.4,0.5-0.6,0.7c-1.1,1.2-1.1,1.2-2.3,0.2c-0.7-0.6-1.4-1-2.2-1.4c-1-0.4-2-0.5-3,0c-0.9,0.5-1.9,0.5-2.9,0.1
		c-1.4-0.5-2.8-1-4.2-1.5c-1.6-0.6-2.5-1.7-2.7-3.4c0.3-0.7,0.3-1.5,0.9-2.4c2.9,1.2,5.7,2.5,8.6,3.7c0.4-0.5,0.1-0.9,0-1.4
		c-0.3-1.1-0.2-1.2,1-1.3c2.5,0,4.8,0.4,6.9,1.7c1.2,0.8,2.3,1.1,3.5,0.1c0.6-0.5,1.3-0.5,2.1-0.3c1.1,0.3,2.1,0.7,3.1,1.2
		c1.5,0.8,2.9,1.6,4.4,2.4c0.5,0.3,1,0.7,1.7,0.6c0.2-1-0.4-1.9-0.1-2.9c0.7-0.1,1.2,0.4,1.7,0.6c6.9,3.5,13.3,7.8,18.6,13.4
		c1.1,1.2,2.1,2.4,3,3.7C124.2,70.1,126.9,74.5,129.5,78.9z"/>
	<path class="st5" d="M115.4,24c-0.5,1.6-0.7,3.3-0.8,5c-0.2,3.3-0.5,6.5-1.5,9.7c-0.5,1.6-1.2,3.1-2.1,4.5c-1.4,2-3.3,3.1-5.7,3.3
		c-3.7,0.3-7.1-0.8-10.5-2c-0.7-0.3-1.9-0.3-2-1.1c-0.2-0.9,1-1.3,1.7-1.8c6.4-4.5,11.8-9.9,15-17.1c0.7-1.6,1.4-3.2,2.1-4.9
		c0.3-0.8,0.7-1.6,1.2-2.2c0.6-0.8,1.4-1.4,2.5-1.3c0.9,1.2,0.7,2.6,1,4C116,21.4,116.9,22.9,115.4,24z"/>
	<path class="st5" d="M59.4,138.3c0.1-2.6,2-4.5,4.5-4.6c0.5,0,1,0.1,1.1,0.7c0,0.2,0.1,0.5,0.2,0.7c0.7,2.2,1.5,2.7,3.8,1.4
		c1.5-0.9,2.9-1.8,4.7-1.9c0.3,0,0.6-0.1,0.9-0.1c2.7,0.3,5.4,0.3,8.1,1c2.4,0.6,4.3,1.7,6,3.5c2.4,2.5,5.2,4.5,8.4,6
		c0.6,0.2,1.1,0.6,1.7,0.6c0,0.7-0.5,1.3-0.6,2.2c1.4-0.1,2.6-1,3.9-1.2c2.2-0.1,4.4,0.5,6.6,0.8c3.1,0.4,6,0.3,8.9-0.7
		c1.4-0.5,3-1,4.4,0c0.2,1.8-0.9,2.9-2.2,3.9c-2,1.4-4.3,1.9-6.6,2.3c-5.6,0.7-11.1,0.2-16.4-1.8c-3.2-1.2-5.8-3.1-7.6-6.1
		c-2.6-4.3-6.4-7-11.5-7.9c-3.2-0.5-6-0.1-8.4,2.2c-0.6,0.6-1.3,1.2-2,1.6c-1.7,1.1-3.2,0.8-4.2-1c-0.5-0.8-0.7-1.7-0.9-2.6
		C61.1,137,60.4,137.9,59.4,138.3z"/>
	<path class="st7" d="M115.4,24c0.6-1.3,0.1-2.6,0.3-3.9c0.9,0.1,0.9,0.9,1.1,1.5c0.5,1.8,1.2,3.6,2.1,5.3c1.3,2.5,2,5.1,2.5,7.8
		c0.6,2.9,2,5.3,4.1,7.3c0.8,3.2,1.5,6.3,1.6,9.6c0.1,1.4-0.2,2.7-0.9,4c-1.5,2.7-1.2,4.3,1,6.5c0.4,0.4,0.9,0.9,0.7,1.6
		c-0.9,0.7-1.8,0.3-2.6-0.2c-1.9-1.2-2.8-3-3.5-5c-0.4-1.1-0.6-2.3-0.9-3.5c-0.3-1.3-0.7-2.5-2.4-2.4c-0.6,0-0.9-0.4-1-0.9
		c-0.3-1.5-1-2.9-0.9-4.4c0.7-0.9,1.5-1.8,2.2-2.7c1.4-1.7,1.8-3.7,1.3-5.8c-0.9-3.5-2-7-3-10.5c-0.3-1-0.6-2.1-0.9-3.1
		C116,24.6,115.9,24.2,115.4,24z"/>
	<path class="st6" d="M115.7,94.9c0.4,0.8,1.1,1.1,1.8,1.4c0.5,0.3,1.2,0.4,1.2,1.1c-0.2,1.1,0.6,1.8,1.2,2.5
		c2.6,2.9,5.2,5.7,7.7,8.6c1.1,1.2,2.1,2.4,2.9,3.8c0.5,0.8,1,1.5,1,2.5c-0.7,0.4-1.3,0-1.8-0.2c-3-1.2-6.1-1.4-9.3-0.5
		c-0.6,0.2-1.2,0.1-1.8,0.2c-0.2-1.3,0.2-2.6,0.5-3.7c0.7-2.8-0.3-5-2.2-6.9c-2.7-2.6-4.5-5.6-5.8-8.9c-0.4-1.1-0.7-2.2-1-3.3
		c-0.1-0.6-0.4-1.4,0.6-1.6c0.4,0,0.7,0.2,0.9,0.5C112.9,92,114.4,93.4,115.7,94.9z"/>
	<path class="st6" d="M26.2,17.6c-0.3-0.9-0.7-1.8,0-2.7c7.1,4,13.6,8.8,19.7,14.1c2.2,1.9,4.4,3.8,6.1,6.1
		c-0.1,0.3-0.1,0.6-0.5,0.6c-1.5-0.1-2.6-0.9-3.6-1.8c-1.3-1.1-2.5-2.3-3.6-3.7c-1.3-1.7-3-2.6-5.1-2.9c-0.4,0.5,0,0.8,0.2,1.2
		c0.8,1.7,1.8,3.3,2.5,5c0.7,1.7,1.4,3.4,0.6,5.2c-0.3,0.7-0.7,1.3-1.6,1.2c-1.3-1-1.4-2.5-2-3.8c-0.3-0.7-0.5-1.4-0.8-2.1
		c-1.5-3.4-3.6-6.5-5.6-9.6c-0.6-1-1.5-1.7-2.5-2.4C28.5,20.7,27.1,19.3,26.2,17.6z"/>
	<path class="st5" d="M53.4,57.5c-0.9,3.8-3.7,5.8-7.2,7.2c-0.4-0.7-0.3-1.3-0.1-1.9c0.6-3.1,1.8-6.1,3.6-8.7
		c1.5-2.3,2.4-4.8,2.6-7.5c0.1-1.2-0.1-2.6-0.4-3.8c-0.4-1.5-0.2-2.9-0.3-4.3c0-1.1,0.8-1.9,1.2-2.8c1.7,1.5,3,3.2,4.1,5.1
		c1.5,2.6,1.4,5.2,0.2,7.9c-0.8,1.8-2,3.5-3.2,5.1c-1.1,1.5-2.1,3.1-2.7,5.2C52.2,58.6,52.7,57.7,53.4,57.5z"/>
	<path class="st5" d="M116.5,47.1c1.1,1.5,0.9,3.3,1.6,4.9c2.1-0.3,2.5,0,3.1,1.9c0.4,1.2,0.6,2.3,0.9,3.5c0.4,1.7,1.2,3.2,2.3,4.5
		c0.9,1,2,1.8,3.5,1.6c-0.1,0.9-0.5,1.8-1,2.5c-0.8,1.1-1.6,1.2-2.7,0.5c-0.7-0.4-1.2-1.1-1.7-1.7c-4-5.4-8.9-10.1-14.2-14.3
		c-0.6-0.5-1.1-1-1.7-1.5c-0.1-0.1-0.1-0.2-0.2-0.5c1.3-0.1,2.6,0.3,3.8-0.1c1.1-0.4,2.3-0.8,3.5-1.3c-0.1,1.1-0.9,2-0.3,3.2
		C114.9,49.4,115,47.7,116.5,47.1z"/>
	<path class="st8" d="M125.5,41.9c-0.2,0.2-0.1,0.8-0.6,0.2c-2.2-2.5-3.8-5.4-4.3-8.7c-0.3-2.1-1-4.1-2-6c-1-2-1.9-4-2.4-6.1
		c-0.1-0.4-0.1-0.9-0.5-1.1c-0.1-1.3-0.6-2.6-0.5-4c1.8,0.2,2.9,1.3,3.7,2.7c1.5,2.6,2.7,5.3,3.5,8.2c1,4,2.1,8.1,2.8,12.2
		C125.4,40.1,125.5,41,125.5,41.9z"/>
	<path class="st9" d="M123.6,132.6c0.1-0.3,0.3-0.5,0.4-0.8c1.1-0.9,2.4-1.5,3.7-2c2.5-1,4.9-2.1,6.6-4.2c0.3-0.4,0.8-0.8,1.6-0.8
		c0.1,1.8,0.2,3.5-0.3,5.3c-1.5,5.3-7.4,5.7-10.7,4C124.3,133.7,123.8,133.2,123.6,132.6z"/>
	<path class="st10" d="M122.2,146.4c-1.8-0.1-3.6,0.2-5.3,0.8c-1.6,0.6-3.2,0.8-4.9,0.7c-3.2-0.1-6.2-0.7-9.3-1.3
		c-0.2,0-0.3-0.2-0.4-0.3c0.5-0.5,1.1-0.7,1.7-1.1c0.5-0.3,0.9-0.4,1,0.4c0.1,0.4,0.4,0.4,0.7,0.2c0.7-0.3,1.3-0.7,2-1
		c1-0.5,2-0.9,3.2-1c0.3,0.8-0.5,1.1-0.6,1.7c0.6,0.2,1.1,0,1.7-0.1c2.2-0.5,4.4-1.4,6.7-1.7c0.1,0,0.1,0,0.2,0
		C121.5,143.2,121.9,143.5,122.2,146.4z"/>
	<path class="st11" d="M101.8,144.1c0-2.2-0.1-4,0-5.9c0.1-1.9,0.8-2.2,2.5-1.4c0.5,0.2,1,0.5,1.5,0.8c1.6,1,1.7,1.1,0.6,2.6
		C105.3,141.8,103.8,142.9,101.8,144.1z"/>
	<path class="st12" d="M115.4,141.8c0-0.3,0-0.4,0-0.5c0.9-2.7,0.9-2.7,3.8-3.4c1.6-0.4,3.1-0.6,4.7-0.8c0.2,0,0.5,0,0.8,0.3
		c-0.3,1.5-1.1,2.8-2.7,3.5c-0.1-0.1-0.3-0.2-0.3-0.3c-0.1-0.6,0.1-1.5-0.7-1.7c-0.6-0.2-1.1,0.5-1.5,0.9
		C118.5,141,117.2,141.8,115.4,141.8z"/>
	<path class="st13" d="M125.8,143.4c0.5-1.7,0.9-3.1,1.3-4.6c0.2-0.7,0.5-0.8,1.2-0.7c2.4,0.5,2.5,0.8,1,2.8
		C128.3,142.1,127.5,142.7,125.8,143.4z"/>
	<path class="st14" d="M109.2,141.9c-0.2-0.6,0-1,0.1-1.4c0.5-2.5,0.5-2.5,3.5-2.4C112.2,140,110.9,141.1,109.2,141.9z"/>
	<path class="st15" d="M90.2,126.8c1.7,0.4,2.8,1.3,3.4,2.5c0.4,0.8,0.2,1.2-0.8,1.7c-0.8,0.4-1-0.2-1.2-0.7
		C91.2,129.2,90.8,128.1,90.2,126.8z"/>
	<path class="st16" d="M97.4,132.6c1,0.3,1.6,0.9,2.1,1.7c0.4,0.7,0.1,1.5-0.6,1.8c-0.5,0.2-1,0.2-1.1-0.5
		C97.8,134.7,97.2,133.7,97.4,132.6z"/>
	<path class="st17" d="M85.9,123.9c-1.4,1.4-1.6,1.3-2.5-0.6C84.8,123.3,84.8,123.3,85.9,123.9z"/>
	<path class="st18" d="M58.6,176.1c-0.4-0.7-0.3-1.5-0.3-2.3c0.6,0.1,0.7,0.4,0.7,0.8C58.4,175,58.9,175.6,58.6,176.1z"/>
	<path class="st2" d="M38.5,33.7c0.8,2,1.6,4.1,2.4,6.1c1.6,5.7,1.8,11.4,0.3,17.1c-0.8,1-1,2.3-1.6,3.5c-0.8,1.6-2,2.8-3.7,3.4
		c-0.5,0.2-0.9,0.3-1.5,0.1c0.1-0.8,0.5-1.6,0.8-2.3c1.2-2.8,0.8-5.3-1.2-7.6c-3-3.5-4.9-7.5-5.5-12c-0.5-3.1-0.3-6.2,0.4-9.2
		c0.2-0.7,0.3-1.3,0.5-1.9c0.7-2.7,0.6-5.3-1.1-7.7c-0.3-0.4-0.5-1-0.5-1.5c2.7,0.5,3.9,2.5,4.6,4.9c0.7,2.5,0.6,5.1,1,7.6
		c0.3,1.7,0.6,3.4,1.8,4.7c0.4,0.5,0.9,1.1,1.5,0.8c0.6-0.2,0.4-0.9,0.5-1.4c0-1.3-0.1-2.6,0.1-3.8C37.1,33.3,37.5,32.8,38.5,33.7z"
		/>
	<path class="st2" d="M70.6,154.5c-1-0.2-2.1-0.3-3.1-0.5c-4.9-0.6-9.2,0.4-12.9,3.8c-1.1,1-1.2,1-1.8-0.5c-0.6-1.5-1.1-3-1.7-4.4
		c-0.4-1-0.9-1.9-1.6-2.6c-0.8-0.8-1-0.8-1.7,0c-0.9,1-1.9,1.9-3.4,2.4c-0.3-1,0-2.2-0.8-3c-2.8,1-2.1,3.8-3.3,5.9
		c-1.5-3.2-3.3-6-4.2-9.2c-0.5-1.6-1-3.1-1.6-4.7c-0.4-1-0.7-1-1.5-0.4c-0.8,0.6-1.4,1.4-1.8,2.3c-0.4,0.7-0.7,1.6-1.4,2.2
		c-2.7-2.4-5.1-5-6.4-8.4c-1.6-4.3-0.6-8.1,2.5-11.4c0.5-0.1,0.7,0.3,0.8,0.6c0.3,1.4-0.2,2.8-0.4,4.2c-0.3,3,0.7,5.6,2.1,8.2
		c0.5,0.9,1,0.7,1.6,0.2c0.9-0.9,1.8-1.8,2.8-2.7c0.7-0.6,1.3-1.3,2.1-1.8c0.7-0.4,1.3-1.1,2.2-0.6c0.7,0.4,0.5,1.3,0.6,2
		c0.1,2.4-0.1,4.9,0.4,7.3c0.3,1.2,0.7,2.3,1.3,3.4c0.2,0.4,0.4,0.8,0.9,0.8c0.6,0,0.8-0.6,1-1c1.2-2.7,1.4-2.7,3.4-0.5
		c1.5,1.7,2,1.7,3.3-0.1c0.4-0.5,0.6-1.2,1.2-1.5c0.2-0.2,0.5-0.4,0.7,0c0.3,0.6,0.5,1.2,0.7,1.9c0.7,2.2,1.7,4.3,2.9,6.3
		c1,1.6,1,1.6,2.7,0.9c1.8-0.8,3.6-1.6,5.6-2c3.8-0.7,7.1,0,9.7,3.1C71.1,154.7,70.9,154.7,70.6,154.5z"/>
	<path class="st2" d="M39.7,101.9c-0.9-0.6-1.9-0.6-2.8-0.8c-0.8-0.2-1.6-0.3-2.5-0.9c3.5-2.2,7.2-4.1,8.2-8.7
		c-1.5-0.1-3.2,0.7-4.3-1.2c2.1-1.1,3.1-3.2,4.3-5c0.9-1.3,2.1-2.4,3.4-3.3c0.8-0.5,0.9-1,0.2-1.7c-0.7-0.8-1.2-1.7-1-2.8
		c0.6-0.5,1.3-0.3,1.9-0.2c2.1,0.1,4.2,0.4,6.3-0.4c0.8-0.3,1.5-0.6,0.8-1.7c-0.5-0.8-0.1-1.4,0.4-1.9c4.7-5,10.3-7.3,17.2-4.7
		c0.7,0.3,1.6,0.5,1.9,1.3c-0.2,0.9-1,0.6-1.6,0.6c-2.4,0.2-4.7,0.5-7,1.1c-1.4,0.4-2.7,0.9-3.8,1.9c-1.2,1.2-1.1,1.7,0.6,2.2
		c0.2,0,0.3,0.2,0.6,0.3c-2.8,2.9-6.4,4.1-10.2,4.8c0.2,0.7,0.9,0.7,1.3,1.4c-3,0.9-6.3,1.3-8.2,4.6c1.8,0.5,3.7,0.6,5.2,2.1
		c-0.8,0.2-1.4,0.5-2,0.6c-1.4,0.4-2.5,1.2-3,2.5c-1,2.2-2.1,4.3-3.2,6.4C42.2,99,42,99.5,43,100c1.4,0.8,1.7,1.6,1.7,3.7
		c-1-0.1-1.6-0.9-2.4-1.3C41.5,101.9,40.6,101.8,39.7,101.9z"/>
	<path class="st6" d="M49,144.3c-0.2,1.4-1,2.3-2,3.2c-1,0.9-1.2,0.8-2.1-0.2c-0.4-0.5-0.8-1.1-1.3-1.6c-0.4-0.4-0.6-1-1.5-1.2
		c-0.4,1.4-0.6,3-2,4c-1.3-0.9-1.9-2.3-2.4-3.7c-0.7-2.2-0.8-4.4-0.7-6.7c0-1.3,0-2.7,0-4.2c-3.6,1.3-5.3,4.8-8.4,6.6
		c-2.4-3.7-3.6-7.6-2.7-11.9c0.1-0.6,0.2-1.2,0.3-1.8c0.3-0.5-0.2-1.2,0.4-1.6c0.3-0.8,0.9-1.5,1.4-2.1c2.2,1.2,2.7,2.3,1.8,4.6
		c-0.4,1-0.9,2-1.2,3c-0.4,1.3-0.3,2.5,0.4,3.7c0.3,0.5,0.6,0.7,1.2,0.3c0.5-0.4,1.1-0.7,1.6-1.2c0.7-0.7,1.4-1.4,2.1-2.1
		c1.2-1.3,2.7-1.8,4.5-1.8c0.9,0,1.8,0,2.8,0c0.2,1.3-0.3,2.3-0.4,3.3c-0.7,4.2,1.6,6.5,4.2,8.1c0.9,0.5,1.8,1,2.9,1.3
		C49.1,142.8,49.1,142.8,49,144.3z"/>
	<path class="st2" d="M91.1,112.8c-0.7,0.3-0.8-0.3-1.1-0.7c-1.6-2.3-3.7-4.2-6.1-5.8c-1.1-0.7-2.2-1.3-3.5-1.6
		c-2.6-0.6-4.8-0.1-6.5,1.9c-0.4,0.5-0.8,1.1-1.3,1.5c-1.6,1.6-3.6,2.1-5.8,1.8c-0.6-0.1-1.1-0.2-1.4-0.8l0,0c0.7-1.2,2.1-1.6,3-2.7
		c1.7-2,1.7-2.6-0.5-4c-2.1-1.4-4.1-2.9-6.1-4.5c-1.3-1-2.1-2.4-2.4-4c-0.7-2.4-0.2-4.8,0.4-7.5c1,1.2,1.3,2.4,1.7,3.5
		c1.1,2.8,2.9,5,5.4,6.8c2.5,1.8,5.3,2.8,8.4,3.1c3.4,0.2,6.6,0.9,9.6,2.6C88.9,104.9,90.9,108.3,91.1,112.8z"/>
	<path class="st2" d="M92.3,93.8c0.1,0.4,0.5,0.3,0.8,0.3c0.9,0,1.7,0.1,2.6,0c2.6-0.3,4.7,0.8,6.7,2.1c1.3,0.9,2.2,2.1,2.6,3.7
		c-0.9-0.2-1.2-0.8-1.7-1.2c-1.4-1.2-3-2.1-4.8-2.7c-1.9-0.6-3.7-0.4-5.5,0.2c-2.4,0.8-4.6,2.1-6.9,3.2c-2,1-2.7,0.9-4.6-0.4
		c0.1-0.6,0.7-0.6,1.1-0.8c1-0.4,2-0.7,3-1.1c1-0.4,1.7-1.1,2-2.4c-1-0.2-2,0.4-2.9-0.5c0.3-0.7,1-0.8,1.6-1.1
		c0.6-0.3,1.2-0.6,1.5-1.3c0.2-0.6,0-1-0.7-0.9c-1,0.2-2.1,0.4-3.1,0.7c-1.2,0.4-2.5,0.4-3.7,0.1c-2-0.4-3.8-1.1-4.6-3.2
		c-0.1-0.3-0.3-0.7-0.7-0.8c-0.2-0.1-0.2,0-0.3,0.1c-0.3,1.3-0.7,1.4-1.6,0.6c-0.3-0.2-0.6-0.6-0.6-0.9c-0.2-1.2-0.7-2-1.9-2.4
		c-0.6-0.2-0.4-0.6-0.2-1c0.4-0.9,1.4-0.9,2.1-1.3c3.2-1,6.5-1.2,9.4,0.8c2.5,1.7,5.1,3.1,8.2,3.7c1.8,0.3,3.5,1.2,5,2.3
		c1.2,0.8,1.2,1.5-0.2,2.1C93.9,92.2,93,92.9,92.3,93.8z"/>
	<path class="st19" d="M73.8,69.8c-1.8-0.7-3.5-1.5-5.4-1.8c-3.2-0.5-6.3,0.2-9.1,1.9c-1.9,1.2-3.6,2.7-5.1,4.4
		c0.1,0.2,0.1,0.3,0.2,0.4c1.5,1.2,1.4,1.6-0.2,2.3c-2.3,1-4.7,0.8-7.1,0.6c-0.6-0.1-1.2-0.2-1.8-0.2c-0.1-0.3-0.3-0.7-0.4-1
		c1.4-1.1,3.2-1.7,4.9-2.1c3-0.8,5.2-2.3,6.7-5c1.1-2,2.9-3.2,5.3-3.5c5.1-0.7,9.4,0.8,13.3,4.1C74.5,70.3,74.2,69.7,73.8,69.8z"/>
	<path class="st20" d="M115.7,94.9c-1.4-0.7-2.5-1.8-3.3-3.1c-0.5-0.7-0.8-1.5-1.6-2c-0.6-0.9-1.1-1.8-1.7-2.6
		c-1.7-2.4-2.3-5-1.4-7.8c0.5,0.2,0.5,0.8,0.5,1.2c0.1,1,0.4,1.9,0.8,2.8c0.3,0.8,0.9,1.5,1.6,1.9c1.5,0.9,2.9,0.6,3.7-1
		c0.5-1,0.9-2,1.4-3c0.4-0.9,0.9-1.9,1.7-2.6c0.7-0.7,1.5-1.3,2.7-1c-0.2,0.4-0.3,0.8-0.5,1.1c-0.9,1.4-0.8,2.6,0.4,3.8
		c0.4,0.4,0.7,0.8,0.2,1.4c-0.9,1.1-1,2.5-1.1,3.8c-0.1,0.9-0.3,1.8-0.5,2.7c-0.1,0.5-0.3,1.1-0.8,1.2
		C116.3,92.3,116,93.6,115.7,94.9z"/>
	<path class="st20" d="M67,113c2.1-0.4,4-1.3,6-2c7-2.4,14.8,1.7,18,6.4c0.2,0.3,0.5,0.7,0.5,1.2c-0.5,0.1-0.9-0.3-1.3-0.5
		c-1.7-1-3.3-2-4.9-2.9c-5-2.6-10.2-2.6-15.5-0.8c-1.4,0.5-2.6,1.2-3.7,2.1c-1.4,1.3-2.4,2.8-2.4,4.7c-0.1,0.6-0.1,1.3-0.2,2.1
		c-1.2-1.1-1.2-2.4-1.2-3.7c0.1-2,1-3.6,2.5-4.9C65.5,114.2,66.3,113.6,67,113z"/>
	<path class="st21" d="M92.3,93.8c-0.1-1.3,0.5-1.9,1.7-2.2c0.6-0.2,1.4-0.2,1.9-0.8c-2-1.5-4.2-2.7-6.7-3.1
		c-2.6-0.4-4.9-1.4-6.8-3.1c-1.4-1.2-3-1.7-4.8-1.7c-1.7,0-3.3,0.1-5,0.1c-0.2-0.2-0.3-0.4-0.1-0.6c0.8-0.9,1.8-1.2,2.9-1.3
		c2.2-0.1,4.3,0.3,6.3,1.1c2.4,0.9,4.6,2,7,2.8c1.6,0.5,3.4,0.8,5,1.2c1.5,0.4,2.7,1.1,3.9,2c1,0.8,1.6,1.9,1.1,3.2
		c-0.1,0.2-0.1,0.3-0.1,0.5c-0.3,2-0.3,2-2.4,2C94.9,93.8,93.6,93.8,92.3,93.8z"/>
	<path class="st20" d="M81.8,188.7c-0.7-0.6-1.1-1.3-1.5-2.1c-1.2-2.4-2.8-4.4-4.8-6.2c-1.9-1.8-3.7-3.8-5-6c-1.2-2-2.1-4.2-1.4-6.6
		c0.6-2.2,1.8-4.1,4-5.2c-0.5,2.2-1.1,4.4-0.8,6.6c0.2,1.6,0.8,3.1,1.6,4.4c1.3,2.1,2.9,4.1,4.7,5.8c1.5,1.4,2.4,3,2.6,4.9
		C81.5,185.8,81.9,187.2,81.8,188.7z"/>
	<path class="st5" d="M59.4,94.1c2.1,4.1,6.1,6.3,9.7,8.7c1.2,0.8,1.3,0.8,0.8,2.1c-0.8,2.2-2.6,3.3-4.5,4.3c0-0.5-0.3-0.9-0.7-1.2
		c-0.9-0.7-1-1.3,0-2c0.2-0.1,0.3-0.4,0.5-0.6C61.5,102.5,59.6,98.7,59.4,94.1z"/>
	<path class="st22" d="M70.6,154.5c0.3,0,0.6,0,0.8-0.1c0.2,0,0.3,0.2,0.3,0.4C71.3,154.9,70.9,154.9,70.6,154.5z"/>
	<path class="st4" d="M38.5,33.7c-0.3-0.1-0.6-0.2-1-0.3c-0.3,0.8-0.1,1.6-0.1,2.4c0,1.3,0.1,2.6,0,3.8c0,0.9-0.4,1-1.2,0.7
		c-1.1-0.4-1.8-1.2-2.4-2.2c-0.8-1.4-1.1-3-1.3-4.5c-0.2-1.8-0.5-3.6-0.6-5.4c-0.2-3.1-1.7-5.2-4.4-6.7c-1.3-1-1.3-2.5-1.3-4
		c0.5,0.2,0.8,0.5,1.1,1c0.6,1,1.5,1.9,2.4,2.5c2,1.4,3.5,3.2,4.7,5.3C35.7,28.8,37.4,31.1,38.5,33.7z"/>
	<path class="st23" d="M26.7,125.2c-0.1,0.5,0,1.1-0.4,1.6c-0.1-0.3-0.1-0.7-0.5-0.9C26,125.6,26.2,125.2,26.7,125.2z"/>
	<path class="st24" d="M85.2,89.4c-2.4,2.7-7.2,1-8.4-1.5c-0.5-1.1-0.3-2.6,0.5-3.2c0.7-0.6,2.1-0.5,3.1,0.1
		c0.2,0.1,0.3,0.2,0.4,0.3C82.1,86.7,83.5,88.2,85.2,89.4z"/>
	<path class="st25" d="M117.6,86.9c0,1.3-0.3,2.4-1,3.3c-0.7,0.9-1.6,1.2-2.4,0.8c-0.9-0.4-1.1-1.2-0.7-2.3c0.4-1.3,1.2-2.4,2.3-3.2
		c1-0.8,1.4-0.6,1.8,0.6C117.6,86.4,117.6,86.8,117.6,86.9z"/>
</g>
</svg>
